<?xml version="1.0" standalone="no"?>
<!DOCTYPE svg PUBLIC "-//W3C//DTD SVG 20010904//EN"
 "http://www.w3.org/TR/2001/REC-SVG-20010904/DTD/svg10.dtd">
<svg version="1.0" xmlns="http://www.w3.org/2000/svg"
 width="100.000000pt" height="100.000000pt" viewBox="0 0 100.000000 100.000000"
 preserveAspectRatio="xMidYMid meet">
<metadata>
Created by potrace 1.14, written by Peter Selinger 2001-2017
</metadata>
<g transform="translate(0.000000,100.000000) scale(0.100000,-0.100000)"
fill="#000000" stroke="none">
<path d="M455 948 c-41 -22 -78 -65 -106 -123 l-29 -60 76 -3 c42 -2 78 -1 81
1 2 3 2 47 1 100 -3 92 -4 95 -23 85z"/>
<path d="M520 860 l0 -100 80 0 80 0 -10 25 c-30 78 -73 135 -122 161 l-28 15
0 -101z"/>
<path d="M292 907 c-58 -29 -162 -119 -162 -139 0 -4 33 -8 74 -8 l74 0 12 34
c6 18 26 59 45 90 18 31 30 56 27 56 -4 0 -35 -15 -70 -33z"/>
<path d="M666 883 c18 -31 38 -71 44 -89 l12 -34 74 0 c41 0 74 3 74 8 -1 12
-42 54 -90 93 -50 40 -80 57 -120 69 l-27 8 33 -55z"/>
<path d="M81 688 c-18 -45 -41 -129 -41 -150 0 -16 11 -18 100 -18 97 0 100 1
101 23 2 49 10 114 18 145 l9 32 -87 0 -87 0 -13 -32z"/>
<path d="M306 712 c-7 -11 -13 -52 -21 -129 l-6 -63 100 0 101 0 0 100 0 100
-84 0 c-47 0 -87 -4 -90 -8z"/>
<path d="M520 620 l0 -100 101 0 101 0 -7 63 c-3 34 -9 78 -13 97 l-8 35 -87
3 -87 3 0 -101z"/>
<path d="M733 713 c9 -14 24 -113 26 -165 l1 -28 100 0 101 0 -6 43 c-5 40
-11 60 -36 127 l-11 30 -90 0 c-49 0 -87 -3 -85 -7z"/>
<path d="M45 438 c3 -24 15 -69 27 -100 l20 -58 85 0 85 0 -8 53 c-8 60 -12
93 -13 125 -1 21 -4 22 -101 22 l-101 0 6 -42z"/>
<path d="M285 418 c3 -35 9 -79 13 -98 l8 -35 87 -3 87 -3 0 101 0 100 -101 0
-101 0 7 -62z"/>
<path d="M520 380 l0 -101 87 3 87 3 8 35 c4 19 10 63 14 98 l6 62 -101 0
-101 0 0 -100z"/>
<path d="M759 463 c-2 -47 -7 -92 -14 -135 l-7 -48 86 0 c47 0 86 1 86 3 0 1
9 27 19 57 11 30 22 74 26 98 l6 42 -101 0 c-88 0 -100 -2 -101 -17z"/>
<path d="M130 232 c0 -5 22 -31 50 -58 50 -49 114 -91 161 -104 l26 -8 -33 55
c-18 31 -38 71 -44 89 l-12 34 -74 0 c-41 0 -74 -4 -74 -8z"/>
<path d="M330 215 c30 -78 73 -135 123 -161 l27 -15 0 101 0 100 -80 0 -80 0
10 -25z"/>
<path d="M520 140 l0 -101 28 15 c49 26 92 83 122 161 l10 25 -80 0 -80 0 0
-100z"/>
<path d="M710 206 c-6 -18 -26 -59 -45 -90 -18 -31 -31 -56 -28 -56 3 0 33 13
67 29 55 27 166 122 166 143 0 4 -33 8 -74 8 l-74 0 -12 -34z"/>
</g>
</svg>
